# xmcd
#
# Track frame offsets: 
#        150
#        31324
#        47849
#        74934
#        92478
#        117540
#        132151
#        141355
#        172759
#        196943
#        223300
#        246207
#        285709
#        309563
#        334434
#
# Disc length: 4640 seconds
#
# Revision: 0
# Processed by: cddbd v1.5.2PL0 Copyright (c) Steve Scherf et al.
# Submitted via: ExactAudioCopy v0.99pb5
#
DISCID=f1121e0f
DTITLE=John Primer - Call Me John Primer (Wolf 120.823)
DYEAR=2010
DGENRE=Blues
TTITLE0=Going Back Down South
TTITLE1=Poor Man Blues
TTITLE2=I'm A Blues Man
TTITLE3=Evil
TTITLE4=I've Been Obused
TTITLE5=1839 Blues
TTITLE6=Shake Your Money Maker
TTITLE7=Blues Behind Closed Doors
TTITLE8=Look At Little Sister
TTITLE9=Dreaming About My Baby
TTITLE10=You Got To Pay The Price
TTITLE11=Call Me John Primer
TTITLE12=Goin' To New York
TTITLE13=I Called My Baby (on the telephone)
TTITLE14=Red House
EXTD=
EXTT0=
EXTT1=
EXTT2=
EXTT3=
EXTT4=
EXTT5=
EXTT6=
EXTT7=
EXTT8=
EXTT9=
EXTT10=
EXTT11=
EXTT12=
EXTT13=
EXTT14=
PLAYORDER=
